<svg xmlns="http://www.w3.org/2000/svg" width="37.964" height="91.333" viewBox="0 0 37.964 91.333">
  <g id="Group_2" data-name="Group 2" transform="translate(-934 -942)">
    <g id="Path_2" data-name="Path 2" transform="translate(934 942)" fill="rgba(0,0,0,0)">
      <path d="M 18.98175048828125 61.089599609375 C 14.18225002288818 61.089599609375 9.669010162353516 59.18368911743164 6.273420333862305 55.72296142578125 C 2.872800588607788 52.25709915161133 1.000000476837158 47.64765167236328 1.000000476837158 42.74369812011719 L 1.000000476837158 19.34590911865234 C 1.000000476837158 14.44195938110352 2.872800588607788 9.832499504089355 6.273420333862305 6.366639614105225 C 9.669010162353516 2.905909776687622 14.18225002288818 0.9999998211860657 18.98175048828125 0.9999998211860657 C 23.78125 0.9999998211860657 28.29449081420898 2.905909776687622 31.6900806427002 6.366639614105225 C 35.09070205688477 9.832499504089355 36.9635009765625 14.44195938110352 36.9635009765625 19.34590911865234 L 36.9635009765625 42.74369812011719 C 36.9635009765625 47.64765167236328 35.09070205688477 52.25709915161133 31.6900806427002 55.72296142578125 C 28.29449081420898 59.18368911743164 23.78125 61.089599609375 18.98175048828125 61.089599609375 Z" stroke="none"/>
      <path d="M 18.98175048828125 2 C 14.45295143127441 2 10.19321060180664 3.799488067626953 6.987211227416992 7.067001342773438 C 3.771160125732422 10.34474945068359 2 14.70547866821289 2 19.34590148925781 L 2 42.74369049072266 C 2 47.38410949707031 3.771160125732422 51.74485015869141 6.987211227416992 55.02259826660156 C 10.19321060180664 58.29010009765625 14.45295143127441 60.089599609375 18.98175048828125 60.089599609375 C 23.51055145263672 60.089599609375 27.77029037475586 58.29010009765625 30.97629165649414 55.02259826660156 C 34.19234085083008 51.74485015869141 35.9635009765625 47.38410949707031 35.9635009765625 42.74369049072266 L 35.9635009765625 19.34590148925781 C 35.9635009765625 14.70547866821289 34.19234085083008 10.34474945068359 30.97629165649414 7.067001342773438 C 27.77029037475586 3.799488067626953 23.51055145263672 2 18.98175048828125 2 M 18.98175048828125 0 C 29.46508026123047 0 37.9635009765625 8.661460876464844 37.9635009765625 19.34590148925781 L 37.9635009765625 42.74369049072266 C 37.9635009765625 53.42813873291016 29.46508026123047 62.089599609375 18.98175048828125 62.089599609375 C 8.498420715332031 62.089599609375 0 53.42813873291016 0 42.74369049072266 L 0 19.34590148925781 C 0 8.661460876464844 8.498420715332031 0 18.98175048828125 0 Z" stroke="none" fill="#fff"/>
    </g>
    <g id="Rectangle_3" data-name="Rectangle 3" transform="translate(949.982 950)" fill="rgba(0,0,0,0)" stroke="#fff" stroke-width="2">
      <rect width="6" height="16" rx="3" stroke="none"/>
      <rect x="1" y="1" width="4" height="14" rx="2" fill="none"/>
    </g>
  </g>
  <g id="Group_3" data-name="Group 3" transform="translate(-939.948 -960.396)">
    <path id="Path_1" data-name="Path 1" d="M0,0,10.053,7.037l1.436,1.005" transform="translate(948.5 1042.458)" fill="none" stroke="#fff" stroke-width="3"/>
    <line id="Line_2" data-name="Line 2" y1="8.042" x2="11.489" transform="translate(957.989 1042.458)" fill="none" stroke="#fff" stroke-width="3"/>
  </g>
</svg>
